<svg height='300px' width='300px'  fill="#000000" xmlns="http://www.w3.org/2000/svg" viewBox="0 0 32 32" x="0px" y="0px"><title>radio, wireless, signal, media</title><g data-name="30"><circle cx="16" cy="16" r="2"></circle><path d="M23.07,8.93l-1.42,1.42a8,8,0,0,1,0,11.3l1.42,1.42a10,10,0,0,0,0-14.14Z"></path><path d="M10.35,10.35,8.93,8.93a10,10,0,0,0,0,14.14l1.42-1.42a8,8,0,0,1,0-11.3Z"></path><path d="M20.24,11.76l-1.41,1.41a4,4,0,0,1,0,5.66l1.41,1.41a6,6,0,0,0,0-8.48Z"></path><path d="M11.76,11.76a6,6,0,0,0,0,8.48l1.41-1.41a4,4,0,0,1,0-5.66Z"></path></g></svg>